<svg version="1.1" xmlns="http://www.w3.org/2000/svg" viewBox="0 0 1100 640.5" width="1100" height="640.5">
  <!-- svg-source:excalidraw -->
  
  <defs>
    <style class="style-fonts">
      @font-face {
        font-family: "Virgil";
        src: url("https://excalidraw.com/Virgil.woff2");
      }
      @font-face {
        font-family: "Cascadia";
        src: url("https://excalidraw.com/Cascadia.woff2");
      }
    </style>
    
  </defs>
  <rect x="0" y="0" width="1100" height="640.5" fill="#ffffff"></rect><g stroke-linecap="round" transform="translate(10 90) rotate(0 111 96.5)"><path d="M32 0 M32 0 C74.76 1.4, 122.7 0.44, 190 0 M32 0 C68.94 1.62, 103.44 1.29, 190 0 M190 0 C211.93 0.68, 223.1 11.49, 222 32 M190 0 C213.51 -0.83, 221.82 9.52, 222 32 M222 32 C224.22 76.91, 223.98 119.98, 222 161 M222 32 C221.86 77.73, 221.92 122.12, 222 161 M222 161 C221.59 184.2, 210.37 191.38, 190 193 M222 161 C222.45 182.4, 211.88 193.46, 190 193 M190 193 C145.89 191.4, 99.47 191.11, 32 193 M190 193 C134.4 192.17, 77.1 192.39, 32 193 M32 193 C12.09 193.63, 0.23 181.54, 0 161 M32 193 C11.42 195.17, 1.86 184.1, 0 161 M0 161 C0.67 133.17, -0.33 108.62, 0 32 M0 161 C-0.59 128.84, 0.39 95.24, 0 32 M0 32 C0.96 9.68, 11.19 1.11, 32 0 M0 32 C1.74 12.15, 11.98 -1.62, 32 0" stroke="#1e1e1e" stroke-width="1" fill="none"></path></g><g transform="translate(43.791664123535156 95) rotate(0 77.20833587646484 12.5)"><text x="77.20833587646484" y="0" font-family="Virgil, Segoe UI Emoji" font-size="20px" fill="#1e1e1e" text-anchor="middle" style="white-space: pre;" direction="ltr" dominant-baseline="text-before-edge">Language Client</text></g><g stroke-linecap="round" transform="translate(210 150) rotate(0 19.5 17.5)"><path d="M28.17 1.87 C31.92 3.35, 36.44 7.7, 38.17 11.32 C39.91 14.93, 39.91 20.08, 38.58 23.55 C37.24 27.01, 33.61 30.35, 30.16 32.1 C26.71 33.85, 22.11 34.57, 17.89 34.05 C13.68 33.52, 7.84 31.42, 4.88 28.96 C1.91 26.5, 0.32 23.11, 0.1 19.29 C-0.13 15.47, 0.94 9.23, 3.53 6.05 C6.12 2.87, 11.17 0.82, 15.63 0.2 C20.08 -0.42, 27.33 1.54, 30.24 2.33 C33.15 3.11, 33.19 4.5, 33.06 4.9 M15.58 0.28 C19.05 -0.96, 24.61 -0.82, 28.23 1.17 C31.86 3.17, 36 8.64, 37.35 12.23 C38.7 15.82, 37.45 19.24, 36.35 22.7 C35.24 26.15, 33.98 30.8, 30.73 32.99 C27.48 35.17, 21.09 36.61, 16.85 35.8 C12.61 34.99, 8.14 31.24, 5.3 28.12 C2.45 25.01, -0.16 21, -0.23 17.13 C-0.31 13.26, 2.18 7.68, 4.83 4.89 C7.49 2.1, 13.77 0.99, 15.69 0.39 C17.61 -0.21, 16.15 0.8, 16.36 1.28" stroke="none" stroke-width="0" fill="#a5d8ff"></path><path d="M23.63 -0.2 C27.62 0.39, 32.28 4.64, 34.89 7.85 C37.51 11.05, 39.66 15.31, 39.33 19.02 C39 22.74, 35.86 27.46, 32.9 30.13 C29.95 32.79, 25.77 34.72, 21.6 35 C17.44 35.27, 11.37 33.95, 7.91 31.75 C4.45 29.55, 2.03 25.41, 0.84 21.79 C-0.35 18.17, -0.81 13.22, 0.78 10.02 C2.37 6.82, 6.2 4.01, 10.39 2.58 C14.59 1.15, 23.31 1.7, 25.97 1.44 C28.63 1.18, 26.36 0.98, 26.36 1.03 M18.94 -0.19 C22.8 -0.46, 28.37 1.69, 31.64 4.35 C34.91 7.01, 37.64 11.88, 38.56 15.77 C39.47 19.67, 39.28 24.8, 37.14 27.71 C34.99 30.63, 29.95 32.38, 25.68 33.25 C21.41 34.12, 15.63 34.24, 11.49 32.92 C7.34 31.59, 2.44 28.72, 0.81 25.3 C-0.82 21.88, 0.48 15.8, 1.69 12.39 C2.9 8.98, 4.99 6.76, 8.08 4.82 C11.16 2.87, 18.2 1.31, 20.21 0.72 C22.22 0.14, 20.11 1.05, 20.13 1.3" stroke="#1e1e1e" stroke-width="1" fill="none"></path></g><g stroke-linecap="round" transform="translate(852 89.5) rotate(0 119 99)"><path d="M32 0 M32 0 C92.48 -0.49, 154.44 -1.63, 206 0 M32 0 C100.49 -0.65, 170.2 0.01, 206 0 M206 0 C228.25 1.71, 238.22 10.42, 238 32 M206 0 C229.3 -1.87, 237.3 9.7, 238 32 M238 32 C237.57 74.07, 238.82 113.31, 238 166 M238 32 C238.37 60.06, 238.19 88.96, 238 166 M238 166 C239.65 186.61, 227.35 196.63, 206 198 M238 166 C236.2 186.6, 228.42 195.74, 206 198 M206 198 C164.06 199.81, 121.1 197.55, 32 198 M206 198 C155.61 198.02, 107.1 198.42, 32 198 M32 198 C11.56 198.67, 1.67 186.25, 0 166 M32 198 C9.47 199.23, -0.38 186.04, 0 166 M0 166 C-0.21 137.84, -1.32 104.42, 0 32 M0 166 C-1.61 117.2, -1.47 68.69, 0 32 M0 32 C0.55 8.75, 9.04 0.29, 32 0 M0 32 C-1.48 9.23, 8.53 -1.65, 32 0" stroke="#1e1e1e" stroke-width="1" fill="none"></path></g><g transform="translate(889.9916687011719 94.5) rotate(0 81.00833129882812 12.5)"><text x="81.00833129882812" y="0" font-family="Virgil, Segoe UI Emoji" font-size="20px" fill="#1e1e1e" text-anchor="middle" style="white-space: pre;" direction="ltr" dominant-baseline="text-before-edge">Language Server</text></g><g stroke-linecap="round" transform="translate(370 90) rotate(0 171 99.5)"><path d="M32 0 M32 0 C97.46 1.43, 164.2 -0.68, 310 0 M32 0 C91.23 0.11, 149.46 -0.71, 310 0 M310 0 C330.94 1.33, 343.03 10.09, 342 32 M310 0 C330.09 -0.5, 341.92 10.06, 342 32 M342 32 C341.78 65.62, 339.44 102.51, 342 167 M342 32 C340.96 80.03, 340.5 129.02, 342 167 M342 167 C342.82 189.48, 330.93 199.55, 310 199 M342 167 C340.83 189.69, 332.9 199.57, 310 199 M310 199 C252.98 201.59, 194.68 199.77, 32 199 M310 199 C210.56 201.19, 111.08 200.22, 32 199 M32 199 C9.01 198.31, -1.84 189.06, 0 167 M32 199 C11.5 200.98, 0.4 186.37, 0 167 M0 167 C0.16 132.21, 0.39 102.78, 0 32 M0 167 C0.32 131.66, 0.33 97.13, 0 32 M0 32 C1.39 12.28, 10.86 1.22, 32 0 M0 32 C2.23 9.35, 9.57 2.16, 32 0" stroke="#1e1e1e" stroke-width="1" fill="none"></path></g><g transform="translate(513.6499996185303 95) rotate(0 27.350000381469727 25)"><text x="27.350000381469727" y="0" font-family="Virgil, Segoe UI Emoji" font-size="20px" fill="#1e1e1e" text-anchor="middle" style="white-space: pre;" direction="ltr" dominant-baseline="text-before-edge">Agent</text><text x="27.350000381469727" y="25" font-family="Virgil, Segoe UI Emoji" font-size="20px" fill="#1e1e1e" text-anchor="middle" style="white-space: pre;" direction="ltr" dominant-baseline="text-before-edge"></text></g><g stroke-linecap="round" transform="translate(370 457.5) rotate(0 171 86.5)"><path d="M32 0 M32 0 C88.23 0.37, 145.83 -0.28, 310 0 M32 0 C106.34 -1.2, 179.71 0.01, 310 0 M310 0 C330.83 -0.13, 343.6 11.49, 342 32 M310 0 C329.25 1.29, 343.4 10.61, 342 32 M342 32 C342.44 71.49, 341.87 108.28, 342 141 M342 32 C341.99 59.19, 342.14 84.4, 342 141 M342 141 C342.57 164.1, 333.1 172.06, 310 173 M342 141 C344.18 164.38, 332.2 172.14, 310 173 M310 173 C214.54 171.53, 117.79 172.35, 32 173 M310 173 C251.22 172.19, 192.23 172.94, 32 173 M32 173 C11.58 173.88, -1.49 161.76, 0 141 M32 173 C10.66 173.32, -0.17 163.62, 0 141 M0 141 C0.47 97.15, 0.74 56.84, 0 32 M0 141 C-1.02 115.84, -0.45 89.76, 0 32 M0 32 C0.35 9.24, 8.89 0.48, 32 0 M0 32 C-1.8 8.87, 9.45 -1.53, 32 0" stroke="#1e1e1e" stroke-width="1" fill="none"></path></g><g transform="translate(477.79999923706055 531.5) rotate(0 63.20000076293945 12.5)"><text x="63.20000076293945" y="0" font-family="Virgil, Segoe UI Emoji" font-size="20px" fill="#1e1e1e" text-anchor="middle" style="white-space: pre;" direction="ltr" dominant-baseline="text-before-edge">Agent Server</text></g><g stroke-linecap="round" transform="translate(350 150) rotate(0 19.5 17.5)"><path d="M19.84 0.33 C23.92 0.21, 28.81 1.98, 31.86 4.31 C34.91 6.64, 37.24 10.59, 38.13 14.31 C39.01 18.03, 38.98 23.3, 37.17 26.64 C35.36 29.98, 31.35 33.18, 27.25 34.37 C23.15 35.55, 16.66 35, 12.57 33.73 C8.48 32.46, 4.75 29.86, 2.74 26.75 C0.73 23.64, -0.23 18.66, 0.51 15.09 C1.25 11.51, 3.81 7.79, 7.18 5.3 C10.54 2.8, 17.93 0.74, 20.7 0.13 C23.47 -0.48, 23.7 1.29, 23.81 1.64 M17.64 1.05 C21.61 0.54, 27.5 0.38, 30.83 2.78 C34.17 5.18, 36.87 11.44, 37.66 15.46 C38.46 19.49, 37.62 24.04, 35.59 26.94 C33.56 29.84, 29.34 31.65, 25.47 32.89 C21.61 34.14, 16.1 35.36, 12.38 34.42 C8.67 33.48, 5.44 30.52, 3.2 27.25 C0.95 23.97, -1.74 18.83, -1.07 14.78 C-0.39 10.74, 3.88 5.65, 7.24 2.96 C10.59 0.27, 17.24 -0.92, 19.08 -1.34 C20.91 -1.77, 18.1 0.1, 18.27 0.4" stroke="none" stroke-width="0" fill="#a5d8ff"></path><path d="M27.89 2.35 C31.71 3.74, 36.32 7, 38.14 10.44 C39.96 13.89, 40.06 19.43, 38.81 23.02 C37.56 26.62, 34.18 30.12, 30.64 32.01 C27.11 33.9, 21.74 34.7, 17.6 34.35 C13.46 34.01, 8.69 32.49, 5.81 29.92 C2.93 27.36, 0.75 22.82, 0.32 18.96 C-0.11 15.1, 0.59 9.9, 3.21 6.73 C5.84 3.57, 11.42 0.37, 16.09 -0.04 C20.75 -0.45, 28.1 3.05, 31.21 4.28 C34.32 5.51, 34.78 7.19, 34.74 7.36 M26.76 0.7 C30.33 2.07, 34.29 7.57, 36 10.92 C37.71 14.27, 37.7 17.22, 37.02 20.8 C36.34 24.39, 35.14 29.92, 31.91 32.43 C28.69 34.95, 21.86 36.23, 17.68 35.88 C13.5 35.54, 9.72 33.28, 6.81 30.38 C3.91 27.48, 0.72 22.06, 0.25 18.48 C-0.22 14.9, 1.43 11.7, 3.99 8.92 C6.55 6.13, 11.9 2.94, 15.61 1.76 C19.33 0.58, 24.17 1.7, 26.29 1.83 C28.42 1.97, 28.39 2.36, 28.34 2.57" stroke="#1e1e1e" stroke-width="1" fill="none"></path></g><g stroke-linecap="round" transform="translate(690 150) rotate(0 19.5 17.5)"><path d="M28.07 1.83 C31.74 3.16, 35.88 6.15, 37.56 9.58 C39.24 13.01, 39.26 18.84, 38.15 22.41 C37.04 25.99, 34.39 28.93, 30.9 31.02 C27.4 33.11, 21.39 35.03, 17.19 34.96 C12.99 34.89, 8.7 33.32, 5.71 30.6 C2.71 27.88, -0.6 22.61, -0.78 18.64 C-0.95 14.68, 1.94 9.87, 4.66 6.81 C7.38 3.75, 11.17 0.94, 15.52 0.29 C19.87 -0.36, 27.58 1.77, 30.75 2.92 C33.93 4.07, 34.64 7.01, 34.58 7.2 M12.55 0.16 C15.93 -1.13, 21.79 -1.26, 26.03 0.39 C30.26 2.04, 36.07 6.79, 37.96 10.06 C39.84 13.33, 38.39 16.36, 37.35 20 C36.31 23.65, 34.82 29.42, 31.71 31.93 C28.59 34.44, 23.09 35.08, 18.64 35.05 C14.19 35.02, 8.22 34.53, 5.02 31.73 C1.83 28.93, -0.26 22.33, -0.53 18.24 C-0.79 14.15, 0.99 10.37, 3.43 7.2 C5.86 4.04, 12.21 0.35, 14.09 -0.75 C15.96 -1.84, 14.42 0.16, 14.65 0.62" stroke="none" stroke-width="0" fill="#a5d8ff"></path><path d="M22.15 0.49 C26.17 0.89, 31.91 3.94, 34.83 6.84 C37.75 9.73, 39.8 14.28, 39.64 17.85 C39.49 21.41, 36.67 25.39, 33.89 28.23 C31.12 31.06, 26.96 34.04, 23.02 34.83 C19.08 35.62, 13.79 34.68, 10.26 32.98 C6.73 31.28, 3.42 28.16, 1.83 24.62 C0.23 21.09, -0.73 15.33, 0.67 11.8 C2.07 8.27, 5.99 5.18, 10.23 3.44 C14.47 1.7, 23.08 1.62, 26.11 1.34 C29.14 1.07, 28.56 1.72, 28.41 1.77 M25.18 2.46 C28.97 3.81, 33.28 6.92, 35.34 9.77 C37.41 12.63, 38.27 16.03, 37.58 19.6 C36.88 23.17, 34.12 28.54, 31.18 31.22 C28.23 33.89, 24.13 35.7, 19.89 35.64 C15.64 35.57, 8.87 33.58, 5.71 30.84 C2.55 28.09, 1.44 23.07, 0.93 19.17 C0.42 15.27, 0.79 10.44, 2.64 7.43 C4.48 4.42, 7.94 2.39, 12.02 1.11 C16.1 -0.17, 24.87 -0.47, 27.12 -0.25 C29.37 -0.04, 25.86 1.77, 25.51 2.42" stroke="#1e1e1e" stroke-width="1" fill="none"></path></g><g stroke-linecap="round" transform="translate(830 150) rotate(0 19.5 17.5)"><path d="M28.83 1.58 C32.55 3.04, 36.13 6.45, 37.74 9.96 C39.35 13.47, 39.7 18.93, 38.5 22.62 C37.29 26.3, 34.3 29.89, 30.52 32.09 C26.74 34.28, 20.23 36.35, 15.81 35.79 C11.4 35.22, 6.76 31.73, 4.03 28.69 C1.3 25.65, -0.43 21.28, -0.56 17.55 C-0.7 13.82, 0.42 9.02, 3.21 6.32 C6 3.62, 11.77 2.06, 16.15 1.37 C20.53 0.68, 27.03 1.83, 29.5 2.18 C31.97 2.54, 31.05 3.15, 30.96 3.49 M20.33 -1.15 C24.1 -1.61, 29.42 0.89, 32.39 3.43 C35.37 5.96, 37.53 10.36, 38.16 14.08 C38.79 17.8, 38.12 22.29, 36.2 25.75 C34.27 29.21, 30.48 33.46, 26.59 34.84 C22.69 36.23, 16.68 35.58, 12.83 34.08 C8.99 32.59, 5.68 29.14, 3.53 25.88 C1.38 22.62, -0.6 18.14, -0.06 14.53 C0.48 10.92, 3.55 6.52, 6.77 4.22 C10 1.91, 17.19 1.11, 19.31 0.69 C21.43 0.27, 19.14 1.53, 19.49 1.7" stroke="none" stroke-width="0" fill="#a5d8ff"></path><path d="M10.17 1.91 C13.71 0.11, 20.5 -1.37, 24.6 -0.41 C28.7 0.56, 32.43 4.45, 34.78 7.7 C37.13 10.95, 38.71 15.44, 38.68 19.09 C38.64 22.74, 37.22 26.92, 34.56 29.61 C31.9 32.3, 27.12 34.8, 22.73 35.24 C18.33 35.68, 11.83 34.29, 8.19 32.22 C4.56 30.15, 2.15 26.46, 0.92 22.84 C-0.32 19.22, -1.38 14.12, 0.81 10.51 C3 6.9, 11.46 2.91, 14.06 1.18 C16.66 -0.55, 16.34 -0.1, 16.42 0.13 M29.49 1.11 C33.58 2.44, 37.2 6.66, 38.5 10.02 C39.8 13.38, 38.5 17.38, 37.31 21.27 C36.11 25.17, 34.58 31.34, 31.33 33.36 C28.08 35.39, 22.26 33.88, 17.81 33.41 C13.35 32.95, 7.68 33.23, 4.59 30.57 C1.51 27.9, -0.46 21.5, -0.71 17.41 C-0.95 13.33, 0.72 8.71, 3.14 6.07 C5.55 3.43, 9.53 2.48, 13.76 1.58 C17.99 0.67, 26.4 0.46, 28.51 0.63 C30.61 0.8, 26.54 2.12, 26.39 2.6" stroke="#1e1e1e" stroke-width="1" fill="none"></path></g><g stroke-linecap="round" transform="translate(210 230) rotate(0 19.5 17.5)"><path d="M24.94 -0.15 C28.92 0.36, 33.94 3.97, 36.27 7.21 C38.6 10.44, 39.31 15.63, 38.92 19.24 C38.53 22.85, 36.98 26.17, 33.93 28.88 C30.88 31.59, 24.9 34.98, 20.62 35.5 C16.34 36.02, 11.49 34.33, 8.26 32.01 C5.03 29.7, 2.42 25.31, 1.22 21.61 C0.02 17.9, -0.51 13.08, 1.05 9.78 C2.6 6.48, 6.29 3.22, 10.56 1.82 C14.83 0.42, 23.77 1.27, 26.67 1.37 C29.56 1.47, 28.23 2.12, 27.92 2.43 M11.52 1.93 C14.71 0.21, 18.83 0.85, 22.63 1.56 C26.42 2.27, 31.75 3.32, 34.29 6.17 C36.82 9.02, 37.7 14.86, 37.83 18.65 C37.95 22.43, 37.93 26.06, 35.05 28.87 C32.18 31.68, 24.98 34.79, 20.57 35.51 C16.17 36.22, 12.06 35.11, 8.6 33.18 C5.14 31.24, 1.16 27.72, -0.2 23.88 C-1.55 20.04, -1.43 13.59, 0.49 10.13 C2.41 6.67, 9.33 4.23, 11.32 3.13 C13.31 2.03, 12.17 3.41, 12.42 3.54" stroke="none" stroke-width="0" fill="#ffc9c9"></path><path d="M12.62 0.9 C16.28 -0.97, 21.12 -1.14, 25 0.15 C28.88 1.43, 33.64 5.46, 35.89 8.61 C38.15 11.76, 39.16 15.5, 38.53 19.05 C37.9 22.6, 34.98 27.34, 32.11 29.91 C29.23 32.48, 25.18 34.3, 21.31 34.47 C17.43 34.64, 12.46 33, 8.87 30.93 C5.28 28.86, 0.87 25.52, -0.25 22.05 C-1.37 18.58, 0.2 13.59, 2.15 10.1 C4.09 6.6, 9.6 2.48, 11.42 1.06 C13.24 -0.35, 12.83 1.22, 13.07 1.59 M9.27 3.28 C12.63 1.61, 19.57 0.63, 23.78 1.37 C28 2.11, 31.81 5.04, 34.55 7.71 C37.28 10.39, 40.24 14.01, 40.19 17.42 C40.14 20.83, 37.53 25.24, 34.25 28.15 C30.97 31.06, 24.58 34.23, 20.5 34.89 C16.42 35.54, 12.88 34.21, 9.76 32.1 C6.65 29.98, 3.2 25.59, 1.82 22.19 C0.45 18.79, 0.07 15.16, 1.51 11.68 C2.96 8.21, 8.7 2.78, 10.51 1.35 C12.32 -0.08, 11.98 2.79, 12.38 3.09" stroke="#1e1e1e" stroke-width="1" fill="none"></path></g><g stroke-linecap="round" transform="translate(350 230) rotate(0 19.5 17.5)"><path d="M28.15 1.31 C31.8 2.7, 35.12 6.82, 36.93 10.05 C38.73 13.27, 40.08 17, 38.99 20.68 C37.89 24.36, 33.85 29.74, 30.37 32.14 C26.89 34.54, 22.09 35.48, 18.13 35.06 C14.17 34.64, 9.72 32.31, 6.6 29.64 C3.48 26.97, 0.07 22.64, -0.58 19.03 C-1.24 15.42, 0.16 10.96, 2.68 7.97 C5.2 4.98, 9.74 1.75, 14.53 1.07 C19.32 0.39, 28.27 2.92, 31.4 3.88 C34.54 4.85, 33.75 6.69, 33.35 6.86 M22.61 1.56 C26.26 2, 31.74 3.32, 34.28 6.16 C36.81 9.01, 37.7 14.85, 37.83 18.63 C37.96 22.42, 37.94 26.05, 35.06 28.86 C32.19 31.67, 25 34.78, 20.59 35.5 C16.18 36.22, 12.07 35.12, 8.61 33.18 C5.15 31.25, 1.16 27.73, -0.19 23.89 C-1.55 20.05, -1.44 13.6, 0.48 10.14 C2.4 6.68, 7.14 4.51, 11.3 3.14 C15.47 1.76, 23.19 2.2, 25.49 1.91 C27.79 1.61, 25.59 1.55, 25.11 1.39" stroke="none" stroke-width="0" fill="#ffc9c9"></path><path d="M27.37 0.92 C30.97 2.38, 35.36 7.18, 37.15 10.57 C38.94 13.96, 39.25 17.82, 38.09 21.28 C36.93 24.75, 33.39 29.16, 30.17 31.36 C26.95 33.56, 22.66 34.78, 18.78 34.47 C14.91 34.15, 10.18 31.92, 6.94 29.47 C3.69 27.03, -0.1 23.38, -0.69 19.82 C-1.28 16.26, 1.11 11.35, 3.41 8.14 C5.71 4.92, 8.99 1.54, 13.12 0.54 C17.25 -0.46, 25.57 1.72, 28.17 2.14 C30.78 2.55, 29.03 2.79, 28.75 3.03 M19.83 0.91 C23.95 0.66, 28.48 2.92, 31.85 5.08 C35.21 7.23, 39.2 10.47, 40.01 13.84 C40.81 17.21, 39.28 21.93, 36.67 25.31 C34.07 28.68, 28.29 32.7, 24.39 34.11 C20.5 35.51, 16.81 35.18, 13.31 33.74 C9.8 32.31, 5.52 28.61, 3.35 25.5 C1.19 22.39, -0.31 18.8, 0.32 15.1 C0.95 11.4, 3.62 5.64, 7.15 3.28 C10.68 0.91, 19.13 1.45, 21.49 0.92 C23.85 0.38, 21.41 0.06, 21.3 0.06" stroke="#1e1e1e" stroke-width="1" fill="none"></path></g><g stroke-linecap="round" transform="translate(690 230) rotate(0 19.5 17.5)"><path d="M18.71 -0.85 C22.53 -1.28, 27 1.57, 30.26 3.94 C33.51 6.32, 37.03 9.95, 38.24 13.4 C39.45 16.85, 39.45 21.37, 37.52 24.64 C35.59 27.92, 30.68 31.41, 26.68 33.04 C22.68 34.67, 17.33 35.34, 13.53 34.43 C9.74 33.52, 6.07 30.65, 3.89 27.6 C1.71 24.54, 0.22 19.8, 0.46 16.11 C0.71 12.42, 2.04 8.12, 5.37 5.45 C8.7 2.79, 17.18 0.81, 20.42 0.13 C23.67 -0.56, 24.7 1.24, 24.83 1.36 M25.13 1.11 C29.34 2.18, 35.81 4.76, 37.89 8.12 C39.97 11.47, 38.62 17.25, 37.61 21.24 C36.61 25.24, 35.06 29.54, 31.86 32.08 C28.66 34.62, 22.77 36.72, 18.41 36.46 C14.06 36.2, 8.67 32.95, 5.73 30.5 C2.79 28.05, 1.02 25.17, 0.74 21.76 C0.46 18.36, 1.85 13.44, 4.06 10.08 C6.28 6.72, 10.5 3.28, 14.03 1.58 C17.56 -0.13, 23.25 -0.09, 25.23 -0.17 C27.21 -0.26, 25.9 0.35, 25.91 1.07" stroke="none" stroke-width="0" fill="#ffc9c9"></path><path d="M13.75 0.3 C17.33 -1.08, 22.58 -0.26, 26.55 1.25 C30.53 2.75, 35.45 6.01, 37.58 9.31 C39.71 12.61, 40.59 17.26, 39.35 21.05 C38.12 24.84, 33.69 29.69, 30.18 32.06 C26.67 34.44, 22.47 35.68, 18.28 35.32 C14.09 34.97, 8.09 32.57, 5.05 29.95 C2 27.33, 0.34 23.25, 0.02 19.62 C-0.3 15.99, 0.58 11.37, 3.12 8.17 C5.66 4.97, 12.72 1.89, 15.26 0.43 C17.81 -1.03, 18.04 -0.83, 18.41 -0.59 M26.5 -0.3 C30.55 0.21, 34.61 3.35, 36.45 6.68 C38.29 10.02, 38.02 15.77, 37.56 19.71 C37.1 23.65, 36.39 27.82, 33.71 30.31 C31.02 32.8, 25.79 34.27, 21.44 34.64 C17.09 35.01, 11.16 34.83, 7.63 32.53 C4.1 30.24, 0.93 24.54, 0.26 20.85 C-0.4 17.16, 1.47 13.7, 3.63 10.4 C5.79 7.11, 9.49 2.82, 13.24 1.07 C17 -0.68, 24.05 -0.21, 26.16 -0.09 C28.28 0.03, 25.96 1.22, 25.92 1.79" stroke="#1e1e1e" stroke-width="1" fill="none"></path></g><g stroke-linecap="round" transform="translate(830 230) rotate(0 19.5 17.5)"><path d="M22.3 0.87 C26.12 1.46, 31.47 3.75, 34.34 6.45 C37.21 9.15, 39.63 13.42, 39.51 17.07 C39.4 20.73, 36.52 25.43, 33.63 28.39 C30.74 31.36, 26.09 34.12, 22.19 34.88 C18.28 35.63, 13.65 34.77, 10.2 32.93 C6.75 31.09, 3.08 27.34, 1.48 23.84 C-0.12 20.34, -0.63 15.54, 0.61 11.95 C1.86 8.37, 4.74 4.1, 8.96 2.32 C13.19 0.55, 22.84 1.51, 25.98 1.29 C29.12 1.08, 27.84 0.92, 27.78 1.02 M14.8 0.18 C18.5 -1.06, 21.98 0.16, 25.61 1.84 C29.24 3.53, 34.57 6.86, 36.57 10.3 C38.57 13.74, 38.64 19.05, 37.62 22.48 C36.6 25.91, 33.49 28.57, 30.45 30.88 C27.42 33.18, 23.16 36.12, 19.41 36.31 C15.66 36.5, 10.96 34.61, 7.94 31.99 C4.93 29.38, 2.32 24.76, 1.31 20.6 C0.3 16.45, -0.11 10.41, 1.86 7.07 C3.83 3.72, 11.24 1.29, 13.12 0.54 C15.01 -0.2, 12.9 2.14, 13.18 2.6" stroke="none" stroke-width="0" fill="#ffc9c9"></path><path d="M26.31 1.15 C30.21 2.33, 35.28 5.82, 37.46 9.1 C39.65 12.38, 40.59 17.01, 39.42 20.81 C38.24 24.62, 33.87 29.5, 30.4 31.92 C26.92 34.34, 22.74 35.64, 18.55 35.34 C14.36 35.04, 8.32 32.69, 5.24 30.11 C2.16 27.54, 0.43 23.49, 0.05 19.86 C-0.33 16.24, 0.82 11.53, 2.97 8.37 C5.11 5.21, 8.51 2.09, 12.91 0.93 C17.31 -0.23, 26.17 0.93, 29.35 1.39 C32.53 1.85, 32.05 3.35, 31.98 3.7 M24.41 -0.9 C27.92 -0.14, 31.18 3.74, 33.77 6.95 C36.36 10.16, 39.77 14.67, 39.94 18.35 C40.11 22.04, 37.8 26.14, 34.78 29.07 C31.76 32.01, 26.18 35.53, 21.83 35.97 C17.48 36.4, 11.94 33.74, 8.69 31.67 C5.43 29.6, 3.31 27.1, 2.33 23.55 C1.36 20.01, 1.3 14.14, 2.83 10.39 C4.36 6.64, 7.88 2.59, 11.51 1.04 C15.14 -0.51, 22.37 1.01, 24.62 1.11 C26.87 1.2, 25.38 1.21, 25 1.61" stroke="#1e1e1e" stroke-width="1" fill="none"></path></g><g stroke-linecap="round"><g transform="translate(250 170) rotate(0 50.11247634618542 0.409414564358201)"><path d="M0.37 1.05 C17.38 1.29, 84.37 1.23, 101.12 1.13 M-0.89 0.56 C16.13 0.51, 83.84 -0.03, 100.76 -0.4" stroke="#1e1e1e" stroke-width="1" fill="none"></path></g><g transform="translate(250 170) rotate(0 50.11247634618542 0.409414564358201)"><path d="M74.47 12.11 C80.87 9.26, 85.98 4.03, 99.08 -0.7 M73.26 10.72 C80.51 6.32, 88.65 4.07, 101.51 0.47" stroke="#1e1e1e" stroke-width="1" fill="none"></path></g><g transform="translate(250 170) rotate(0 50.11247634618542 0.409414564358201)"><path d="M74.18 -8.41 C80.61 -6.69, 85.78 -7.34, 99.08 -0.7 M72.98 -9.8 C80.27 -8.53, 88.49 -5.1, 101.51 0.47" stroke="#1e1e1e" stroke-width="1" fill="none"></path></g></g><mask></mask><g stroke-linecap="round"><g transform="translate(730 170) rotate(0 49.788751065721726 -0.15332888402045342)"><path d="M0.66 0.57 C17.37 0.24, 83.39 -0.77, 100.03 -0.87 M-0.45 -0.18 C16.12 0.13, 82.36 -0.03, 99.1 0.21" stroke="#1e1e1e" stroke-width="1" fill="none"></path></g><g transform="translate(730 170) rotate(0 49.788751065721726 -0.15332888402045342)"><path d="M71.8 10.38 C77.23 8.15, 86.54 6.01, 100.85 1.55 M70.11 9.95 C82.25 6.48, 92.01 2.5, 99.51 0.45" stroke="#1e1e1e" stroke-width="1" fill="none"></path></g><g transform="translate(730 170) rotate(0 49.788751065721726 -0.15332888402045342)"><path d="M71.91 -10.14 C77.49 -6.62, 86.77 -3, 100.85 1.55 M70.21 -10.57 C82.51 -6.23, 92.23 -2.39, 99.51 0.45" stroke="#1e1e1e" stroke-width="1" fill="none"></path></g></g><mask></mask><g stroke-linecap="round"><g transform="translate(830 250) rotate(0 -50.248876643609265 0.17834633675710165)"><path d="M1.13 -0.9 C-15.77 -0.94, -83.64 0.79, -100.44 0.89 M0.26 1.25 C-16.92 1.39, -84.87 -0.7, -101.63 -0.77" stroke="#1e1e1e" stroke-width="1" fill="none"></path></g><g transform="translate(830 250) rotate(0 -50.248876643609265 0.17834633675710165)"><path d="M-74.74 -11.24 C-82.49 -5.98, -95.29 -2.53, -100.8 -0.27 M-73.42 -11.37 C-82.34 -7.89, -91.93 -3.49, -101.45 -1.45" stroke="#1e1e1e" stroke-width="1" fill="none"></path></g><g transform="translate(830 250) rotate(0 -50.248876643609265 0.17834633675710165)"><path d="M-75.13 9.28 C-82.92 6.72, -95.58 2.35, -100.8 -0.27 M-73.81 9.15 C-82.63 5.68, -92.09 3.12, -101.45 -1.45" stroke="#1e1e1e" stroke-width="1" fill="none"></path></g></g><mask></mask><g stroke-linecap="round"><g transform="translate(350 250) rotate(0 -49.92980172262526 -0.4278423258166413)"><path d="M-0.67 -0.21 C-17.59 -0.14, -84.38 0.47, -101.04 0.61 M1.18 -1.37 C-15.42 -1.66, -81.72 -1.19, -98.87 -1.19" stroke="#1e1e1e" stroke-width="1" fill="none"></path></g><g transform="translate(350 250) rotate(0 -49.92980172262526 -0.4278423258166413)"><path d="M-71.07 -13.29 C-79.23 -9.25, -88.72 -3.54, -98.53 -2.56 M-70.76 -11.18 C-78.29 -9.62, -85.05 -6.17, -98.68 -0.55" stroke="#1e1e1e" stroke-width="1" fill="none"></path></g><g transform="translate(350 250) rotate(0 -49.92980172262526 -0.4278423258166413)"><path d="M-71 7.23 C-79.21 4.31, -88.73 3.08, -98.53 -2.56 M-70.68 9.34 C-78.44 5.8, -85.22 4.15, -98.68 -0.55" stroke="#1e1e1e" stroke-width="1" fill="none"></path></g></g><mask></mask><g stroke-linecap="round"><g transform="translate(690 250) rotate(0 -149.77918304205866 0.09855188470558573)"><path d="M0.8 -0.92 C-49.02 -1.14, -249.44 -0.91, -299.61 -0.88 M-0.24 1.21 C-50.12 1.08, -250.2 0.37, -300.36 0.19" stroke="#1e1e1e" stroke-width="1" fill="none"></path></g><g transform="translate(690 250) rotate(0 -149.77918304205866 0.09855188470558573)"><path d="M-273.66 -9.32 C-280.33 -7.78, -286.93 -5.12, -299.42 1.43 M-271.93 -9.83 C-282.81 -6.46, -292.03 -3.19, -300.38 -0.42" stroke="#1e1e1e" stroke-width="1" fill="none"></path></g><g transform="translate(690 250) rotate(0 -149.77918304205866 0.09855188470558573)"><path d="M-273.74 11.2 C-280.46 7.82, -287.05 5.56, -299.42 1.43 M-272 10.69 C-282.79 6.76, -291.98 2.73, -300.38 -0.42" stroke="#1e1e1e" stroke-width="1" fill="none"></path></g></g><mask></mask><g stroke-linecap="round"><g transform="translate(390 170) rotate(0 150.2159565256722 0.5706569086387674)"><path d="M-0.77 0.25 C49.21 0.33, 248.71 0.33, 299.01 0.17 M1.03 -0.66 C51.45 -0.34, 251.23 1.65, 301.2 1.8" stroke="#1e1e1e" stroke-width="1" fill="none"></path></g><g transform="translate(390 170) rotate(0 150.2159565256722 0.5706569086387674)"><path d="M273.36 10.21 C279.72 11.5, 284.76 8.31, 302.85 0.75 M273.81 11.99 C279.66 9.24, 288 6.65, 301.63 1.85" stroke="#1e1e1e" stroke-width="1" fill="none"></path></g><g transform="translate(390 170) rotate(0 150.2159565256722 0.5706569086387674)"><path d="M273.5 -10.31 C279.78 -4.33, 284.79 -2.82, 302.85 0.75 M273.96 -8.53 C279.8 -5.94, 288.1 -3.19, 301.63 1.85" stroke="#1e1e1e" stroke-width="1" fill="none"></path></g></g><mask></mask><g transform="translate(290 10) rotate(0 23.633333206176758 12.5)"><text x="47.266666412353516" y="0" font-family="Virgil, Segoe UI Emoji" font-size="20px" fill="#1971c2" text-anchor="end" style="white-space: pre;" direction="ltr" dominant-baseline="text-before-edge">stdin</text></g><g transform="translate(750 10) rotate(0 23.633333206176758 12.5)"><text x="47.266666412353516" y="0" font-family="Virgil, Segoe UI Emoji" font-size="20px" fill="#1971c2" text-anchor="end" style="white-space: pre;" direction="ltr" dominant-baseline="text-before-edge">stdin</text></g><g stroke-linecap="round"><g transform="translate(790 50) rotate(0 19.20696151219306 49.81987060381101)"><path d="M-1.19 -0.81 C5.46 15.78, 32.92 82.55, 39.61 99.28 M0.38 1.39 C6.87 18.13, 31.64 83.89, 38.45 100.45" stroke="#1971c2" stroke-width="1" fill="none"></path></g><g transform="translate(790 50) rotate(0 19.20696151219306 49.81987060381101)"><path d="M17.27 77.28 C22.83 82.49, 28.78 90.46, 38.53 101.08 M17.89 78.06 C26.07 85.85, 31.59 93.26, 38.26 100.94" stroke="#1971c2" stroke-width="1" fill="none"></path></g><g transform="translate(790 50) rotate(0 19.20696151219306 49.81987060381101)"><path d="M36.38 69.8 C36.67 76.87, 37.38 86.9, 38.53 101.08 M37 70.58 C38.53 80.89, 37.38 90.91, 38.26 100.94" stroke="#1971c2" stroke-width="1" fill="none"></path></g></g><mask></mask><g stroke-linecap="round"><g transform="translate(310 50) rotate(0 20.02327362932266 49.658134684124974)"><path d="M-0.54 -0.23 C6.23 16.73, 33.95 84.08, 40.59 100.71 M1.37 -1.4 C8.04 15.31, 33.21 81.96, 39.95 98.96" stroke="#1971c2" stroke-width="1" fill="none"></path></g><g transform="translate(310 50) rotate(0 20.02327362932266 49.658134684124974)"><path d="M19.84 77.35 C27.1 82, 31.03 90.83, 37.97 97.01 M19.61 77.18 C24.64 83.4, 31.09 88.55, 40.16 99.69" stroke="#1971c2" stroke-width="1" fill="none"></path></g><g transform="translate(310 50) rotate(0 20.02327362932266 49.658134684124974)"><path d="M38.99 69.95 C40.47 76.73, 38.7 87.76, 37.97 97.01 M38.76 69.79 C38.67 77.85, 39.97 84.99, 40.16 99.69" stroke="#1971c2" stroke-width="1" fill="none"></path></g></g><mask></mask><g transform="translate(190 330) rotate(0 33.650001525878906 12.5)"><text x="67.30000305175781" y="0" font-family="Virgil, Segoe UI Emoji" font-size="20px" fill="#e03131" text-anchor="end" style="white-space: pre;" direction="ltr" dominant-baseline="text-before-edge">stdout</text></g><g transform="translate(690 330) rotate(0 33.650001525878906 12.5)"><text x="67.30000305175781" y="0" font-family="Virgil, Segoe UI Emoji" font-size="20px" fill="#e03131" text-anchor="end" style="white-space: pre;" direction="ltr" dominant-baseline="text-before-edge">stdout</text></g><g stroke-linecap="round"><g transform="translate(750 330) rotate(0 39.828241807064046 -30.768852565577276)"><path d="M0 -0.46 C13.47 -10.48, 67.81 -49.3, 81.12 -59.32 M-1.46 -1.74 C11.92 -12.18, 67.35 -51.45, 80.76 -61.08" stroke="#e03131" stroke-width="1" fill="none"></path></g><g transform="translate(750 330) rotate(0 39.828241807064046 -30.768852565577276)"><path d="M63.01 -34.49 C70.27 -44.67, 73.72 -51.93, 82.55 -59.27 M63.5 -35.71 C67.73 -41.42, 70.66 -47.52, 79.99 -61.57" stroke="#e03131" stroke-width="1" fill="none"></path></g><g transform="translate(750 330) rotate(0 39.828241807064046 -30.768852565577276)"><path d="M51.09 -51.19 C62.34 -55.94, 69.66 -57.77, 82.55 -59.27 M51.58 -52.41 C58.44 -54.38, 64.06 -56.7, 79.99 -61.57" stroke="#e03131" stroke-width="1" fill="none"></path></g></g><mask></mask><g stroke-linecap="round"><g transform="translate(270 338.4860436996213) rotate(0 37.836055298874385 -36.42895131558717)"><path d="M-1.17 0.66 C11.1 -11.49, 61.78 -61.47, 74.57 -73.52 M0.42 -0.04 C12.99 -12, 64.43 -60.13, 76.84 -72.35" stroke="#e03131" stroke-width="1" fill="none"></path></g><g transform="translate(270 338.4860436996213) rotate(0 37.836055298874385 -36.42895131558717)"><path d="M64.66 -46.85 C67.55 -55.25, 75.73 -66.15, 76.12 -74.19 M64.28 -46.43 C66.79 -53.86, 71.54 -62.1, 77.49 -72.42" stroke="#e03131" stroke-width="1" fill="none"></path></g><g transform="translate(270 338.4860436996213) rotate(0 37.836055298874385 -36.42895131558717)"><path d="M50.47 -61.68 C58.67 -64.31, 72.24 -69.58, 76.12 -74.19 M50.1 -61.26 C56.64 -64.38, 65.53 -68.28, 77.49 -72.42" stroke="#e03131" stroke-width="1" fill="none"></path></g></g><mask></mask><g stroke-linecap="round"><g transform="translate(490.62595369041026 170.75092303194106) rotate(0 19.388047747125654 132.52750794237045)"><path d="M-0.06 -0.75 C1.05 25.43, 0.06 112.52, 6.54 156.95 C13.02 201.38, 33.54 247.64, 38.84 265.81" stroke="#1e1e1e" stroke-width="1.5" fill="none" stroke-dasharray="8 9"></path></g><g transform="translate(490.62595369041026 170.75092303194106) rotate(0 19.388047747125654 132.52750794237045)"><path d="M18.6 241.57 C25.75 250.57, 28.79 256.37, 37.07 264.46" stroke="#1e1e1e" stroke-width="1.5" fill="none"></path></g><g transform="translate(490.62595369041026 170.75092303194106) rotate(0 19.388047747125654 132.52750794237045)"><path d="M37.97 234.8 C39.53 245.74, 36.98 253.5, 37.07 264.46" stroke="#1e1e1e" stroke-width="1.5" fill="none"></path></g></g><mask></mask><g stroke-linecap="round"><g transform="translate(590 250) rotate(0 -21.91927448012524 94.13531226792497)"><path d="M0.69 0.89 C-0.17 15.12, 1.49 54.6, -6.05 85.68 C-13.59 116.76, -38.03 170.43, -44.53 187.38" stroke="#1e1e1e" stroke-width="1.5" fill="none" stroke-dasharray="8 9"></path></g><g transform="translate(590 250) rotate(0 -21.91927448012524 94.13531226792497)"><path d="M-41.74 157.11 C-45.16 165.77, -44.66 171.63, -45.43 188.34" stroke="#1e1e1e" stroke-width="1.5" fill="none"></path></g><g transform="translate(590 250) rotate(0 -21.91927448012524 94.13531226792497)"><path d="M-22.78 164.96 C-30.49 171.96, -34.25 176.06, -45.43 188.34" stroke="#1e1e1e" stroke-width="1.5" fill="none"></path></g></g><mask></mask><g stroke-linecap="round" transform="translate(519.2855774677553 437.92874929191805) rotate(0 19.5 17.5)"><path d="M27.06 0.57 C30.62 1.78, 33.94 5.66, 35.76 9.12 C37.58 12.58, 38.54 17.87, 37.99 21.35 C37.44 24.83, 35.52 27.64, 32.43 29.98 C29.35 32.33, 23.65 35.28, 19.5 35.43 C15.34 35.59, 10.65 33.29, 7.49 30.93 C4.34 28.57, 1.55 24.96, 0.57 21.25 C-0.41 17.55, -0.52 12.13, 1.62 8.69 C3.77 5.25, 8.91 1.65, 13.47 0.62 C18.03 -0.41, 26.29 2.16, 28.97 2.49 C31.64 2.82, 29.87 2.39, 29.52 2.58 M14.16 0.13 C17.74 -1.21, 24.04 -0.19, 27.92 1.38 C31.8 2.95, 35.83 5.93, 37.44 9.56 C39.06 13.2, 38.82 19.33, 37.6 23.18 C36.39 27.03, 33.47 30.78, 30.17 32.66 C26.87 34.55, 21.72 34.72, 17.79 34.49 C13.86 34.26, 9.54 33.71, 6.59 31.3 C3.65 28.89, 0.57 24.11, 0.13 20.04 C-0.3 15.96, 1.45 9.99, 3.98 6.84 C6.52 3.69, 13.53 2.06, 15.32 1.15 C17.12 0.23, 14.77 1.43, 14.75 1.37" stroke="none" stroke-width="0" fill="#ffec99"></path><path d="M17.83 -0.82 C21.78 -1.45, 26.45 0.02, 29.86 2.38 C33.27 4.73, 37.02 9.52, 38.27 13.32 C39.53 17.13, 39.3 21.83, 37.39 25.23 C35.48 28.63, 30.57 32.21, 26.8 33.72 C23.02 35.22, 18.75 35.23, 14.74 34.26 C10.73 33.29, 5.13 30.89, 2.72 27.9 C0.31 24.92, -0.14 20.29, 0.27 16.35 C0.67 12.42, 1.73 7.07, 5.16 4.29 C8.58 1.51, 18.04 0.23, 20.81 -0.35 C23.58 -0.93, 21.8 0.52, 21.79 0.8 M24.63 1.79 C28.28 2.89, 33.92 4.9, 36.09 8.12 C38.27 11.35, 38.5 17.46, 37.67 21.12 C36.84 24.77, 34.06 27.61, 31.11 30.07 C28.15 32.53, 23.82 35.59, 19.94 35.88 C16.05 36.17, 11.13 34.39, 7.81 31.82 C4.5 29.25, 0.75 24.21, 0.05 20.44 C-0.64 16.67, 1.65 12.58, 3.63 9.21 C5.62 5.84, 8.22 1.4, 11.98 0.22 C15.74 -0.97, 23.67 1.96, 26.18 2.1 C28.68 2.25, 27.13 0.94, 27.01 1.07" stroke="#1e1e1e" stroke-width="1" fill="none"></path></g><g transform="translate(643.9256711676544 419.3575943564075) rotate(0 15.600000381469727 12.5)"><text x="31.200000762939453" y="0" font-family="Virgil, Segoe UI Emoji" font-size="20px" fill="#f08c00" text-anchor="end" style="white-space: pre;" direction="ltr" dominant-baseline="text-before-edge">tcp</text></g><g stroke-linecap="round"><g transform="translate(630 430) rotate(0 -29.958169116061185 10.240608381219204)"><path d="M0.81 -0.1 C-9.05 3.32, -49.75 16.75, -59.86 20.09 M-0.22 -1.19 C-10.16 2.47, -50.69 17.94, -60.73 21.67" stroke="#f08c00" stroke-width="1" fill="none"></path></g><g transform="translate(630 430) rotate(0 -29.958169116061185 10.240608381219204)"><path d="M-38.14 2.36 C-43.38 7.31, -49.12 12.33, -61.81 21.76 M-38.11 1.61 C-42.93 7.68, -49.14 10.43, -60.92 21.22" stroke="#f08c00" stroke-width="1" fill="none"></path></g><g transform="translate(630 430) rotate(0 -29.958169116061185 10.240608381219204)"><path d="M-30.89 21.56 C-37.82 21.93, -45.31 22.32, -61.81 21.76 M-30.87 20.81 C-37.47 22.5, -45.35 20.82, -60.92 21.22" stroke="#f08c00" stroke-width="1" fill="none"></path></g></g><mask></mask></svg>